<?xml version="1.0" standalone="no"?>
<!DOCTYPE svg PUBLIC "-//W3C//DTD SVG 20010904//EN"
 "http://www.w3.org/TR/2001/REC-SVG-20010904/DTD/svg10.dtd">
<svg version="1.0" xmlns="http://www.w3.org/2000/svg"
 width="260.000000pt" height="260.000000pt" viewBox="0 0 260.000000 260.000000"
 preserveAspectRatio="xMidYMid meet">
<metadata>
Created by potrace 1.14, written by Peter Selinger 2001-2017
</metadata>
<g transform="translate(0.000000,260.000000) scale(0.100000,-0.100000)"
fill="#000000" stroke="none">
<path d="M653 1921 c-17 -11 -43 -37 -57 -58 l-26 -38 0 -428 0 -427 26 -41
c47 -75 64 -79 417 -79 l308 0 62 -67 c74 -79 129 -108 189 -98 33 6 57 22
122 85 l81 77 73 5 c81 6 111 22 150 78 22 33 22 33 22 465 l0 432 -23 34
c-12 18 -38 44 -56 56 l-34 23 -611 0 c-586 0 -612 -1 -643 -19z m1217 -526
l0 -395 -78 0 -77 0 -80 -80 c-44 -44 -84 -80 -90 -80 -5 0 -43 36 -83 80
l-73 80 -332 2 -332 3 -3 393 -2 392 575 0 575 0 0 -395z"/>
<path d="M1080 1580 c-28 -28 -26 -71 4 -99 20 -19 32 -22 60 -17 83 16 70
136 -14 136 -17 0 -39 -9 -50 -20z"/>
<path d="M1412 1577 c-29 -31 -28 -68 3 -97 19 -18 31 -21 56 -16 46 9 59 23
59 66 0 67 -72 96 -118 47z"/>
<path d="M1628 1414 c-195 -167 -465 -171 -646 -10 -53 46 -87 57 -110 34 -27
-27 -13 -57 51 -109 100 -84 245 -138 370 -139 132 0 290 60 388 148 42 37 50
50 47 75 -2 20 -10 32 -25 38 -18 7 -32 0 -75 -37z"/>
</g>
</svg>
